# xmcd
#
# Track frame offsets:
#	150
#	10180
#	26594
#	37094
#	48930
#	61471
#	79075
#	93859
#	108635
#	117486
#	131774
#	147022
#	159832
#	172924
#	190676
#	202886
#	213647
#
# Disc length: 2899 seconds
# Revision: 0
# Processed by: cddbd v1.5.2PL0 Copyright (c) Steve Scherf et al.
# Submitted via: dBpowerAMP V12.0
#
DISCID=e20b5111
DTITLE=Sons Of The Pioneers - Our Best To You
DYEAR=1999
DGENRE=Country
TTITLE0=Way Out There
TTITLE1=Red River Vally
TTITLE2=Timber Trail
TTITLE3=There's A Gold Mine In The Sky
TTITLE4=Blue Shaadows On The Trail
TTITLE5=Little Joe, The Wrangler
TTITLE6=Whoopie-Ti-Yi-Yo
TTITLE7=Cool Water
TTITLE8=Don't Fence Me In
TTITLE9=Teardrops In My Heart
TTITLE10=Home On The Range
TTITLE11=Blue Prairie
TTITLE12=Cowboy's Lament
TTITLE13=King Of The Cowboys
TTITLE14=Tumbling Tumbleweeds
TTITLE15=My (Our) Best To You
TTITLE16=Happy Trails To You
EXTD=
EXTT0=
EXTT1=
EXTT2=
EXTT3=
EXTT4=
EXTT5=
EXTT6=
EXTT7=
EXTT8=
EXTT9=
EXTT10=
EXTT11=
EXTT12=
EXTT13=
EXTT14=
EXTT15=
EXTT16=
PLAYORDER=
